<?xml version="1.0" standalone="no"?>
<!DOCTYPE svg PUBLIC "-//W3C//DTD SVG 20010904//EN"
 "http://www.w3.org/TR/2001/REC-SVG-20010904/DTD/svg10.dtd">
<svg version="1.0" xmlns="http://www.w3.org/2000/svg"
 width="225.000000pt" height="225.000000pt" viewBox="0 0 225.000000 225.000000"
 preserveAspectRatio="xMidYMid meet">

<g transform="translate(0.000000,225.000000) scale(0.100000,-0.100000)"
fill="#000000" stroke="none">
<path d="M990 1770 c-9 -6 -10 -10 -3 -10 6 0 15 5 18 10 8 12 4 12 -15 0z"/>
<path d="M1020 1750 c12 -7 11 -10 -5 -16 -11 -5 -20 -3 -23 4 -2 7 -16 11
-30 11 -22 -1 -23 -2 -7 -7 l20 -5 -20 -8 c-19 -7 -18 -8 3 -8 13 -1 37 -14
52 -31 25 -27 31 -29 59 -19 30 11 30 11 16 39 -18 34 -37 49 -30 23 3 -10 0
-8 -6 5 -7 12 -19 22 -28 22 -14 0 -14 -2 -1 -10z"/>
<path d="M813 1735 c-3 -9 -3 -19 1 -22 3 -4 6 1 6 10 0 21 14 22 31 1 8 -10
21 -13 38 -9 39 10 50 25 17 25 -15 0 -25 -4 -21 -10 9 -15 -8 -12 -31 5 -25
19 -33 19 -41 0z"/>
<path d="M781 1696 c-16 -19 -26 -102 -13 -110 5 -3 24 -3 41 0 27 6 31 10 31
41 0 19 5 44 11 56 9 20 9 21 -4 4 -14 -17 -15 -17 -21 0 -6 15 -8 15 -16 3
-9 -14 -14 -7 -11 13 2 11 -5 9 -18 -7z m12 -21 c4 -8 2 -17 -3 -20 -6 -4 -10
3 -10 14 0 25 6 27 13 6z"/>
<path d="M928 1596 c-256 -84 -291 -102 -303 -156 -5 -23 20 -139 76 -352 l10
-38 182 -1 c259 -2 331 -9 335 -33 6 -30 -15 -35 -122 -30 -56 2 -165 6 -242
8 l-142 5 30 -117 c33 -133 44 -154 88 -172 40 -17 38 -17 403 102 260 84 280
93 298 122 10 17 19 42 19 56 0 14 -30 100 -67 193 l-66 167 -166 1 c-91 1
-204 4 -251 7 -72 6 -85 10 -88 26 -2 10 0 22 5 26 4 4 112 5 238 1 127 -4
232 -6 234 -5 10 8 -86 222 -110 247 -42 42 -83 35 -361 -57z"/>
<path d="M1570 815 c-62 -47 -189 -108 -289 -139 -131 -41 -246 -58 -381 -54
-66 2 -120 2 -120 1 0 -9 118 -53 177 -67 202 -45 413 16 561 164 54 54 115
133 100 129 -2 0 -23 -16 -48 -34z"/>
<path d="M1221 501 c-18 -12 -9 -45 13 -49 17 -4 35 12 36 30 0 13 -36 27 -49
19z"/>
<path d="M1322 501 c-20 -12 -10 -46 14 -49 25 -4 40 24 23 44 -13 16 -19 17
-37 5z"/>
<path d="M1110 480 c0 -25 25 -36 45 -20 20 16 7 40 -21 40 -17 0 -24 -6 -24
-20z"/>
</g>
</svg>
